<svg width="36" height="36" fill="none" xmlns="http://www.w3.org/2000/svg"><path fill-rule="evenodd" clip-rule="evenodd" d="M35.62 22.24a.6.6 0 0 0-.66.14l-2.56 2.7v-16l2.45-2.64a.6.6 0 0 0-.04-.85l-.88-.82 1.23-1.32a.6.6 0 0 0-.04-.85L32.48.16a.6.6 0 0 0-.84.03l-4.27 4.6H6.6a3 3 0 0 0-3-3H3a3 3 0 0 0-3 3v25.8c0 .34.27.6.6.6h9.08l-1.26 1.52a.6.6 0 0 0 .08.84l2.77 2.3a.6.6 0 0 0 .84-.07l3.07-3.69c.22-.25.35-.56.4-.9h11L22.96 35a.6.6 0 0 0 .43 1h12a.6.6 0 0 0 .6-.6V22.8a.6.6 0 0 0-.38-.55ZM33.56 6.06 32.4 7.3v-.88l.72-.78.44.4Zm-2.36-.1 1.04-1.12-1.76-1.63-6.12 6.6 1.77 1.63 5.07-5.48Zm-6.23 6.05-1.38.4.3-1.4 1.08 1Zm8.9-8.93L32.1 1.45l-.82.88 1.76 1.63.82-.88ZM3 3h.6c1 0 1.8.8 1.8 1.8V27.6A2.97 2.97 0 0 0 3.6 27H3c-.65 0-1.28.22-1.8.61V4.8C1.2 3.8 2 3 3 3Zm.6 25.2H3c-1 0-1.8.8-1.8 1.8h4.2c0-1-.8-1.8-1.8-1.8Zm10.66 3.12-.38.46-1.85-1.53.39-.46a.6.6 0 0 1 .84-.08l.92.77a.6.6 0 0 1 .08.84Zm-4.53 1.7 1.84 1.53 1.54-1.84-1.84-1.54-1.54 1.85Zm5.6-3.02c-.1-.17-.23-.32-.38-.44l-.92-.77a1.8 1.8 0 0 0-2.54.23l-.81.98H6.6V6h19.66l-3.18 3.44a.58.58 0 0 0-.13.23v.02l-.02.03-.72 3.43a.6.6 0 0 0 .76.7l3.36-.99h.02l.02-.01.05-.03a.6.6 0 0 0 .18-.12l4.6-4.97v18.6L27.71 30H15.32Zm9.47 4.8h10V24.3l-10 10.5Zm4-1.2a.6.6 0 0 1-.42-1.03l4.2-4.2a.6.6 0 0 1 1.02.43V33a.6.6 0 0 1-.6.6h-4.2Zm3.6-1.2v-2.16l-2.15 2.16h2.15Zm-10.2-9.6h4.2a.6.6 0 1 1 0 1.2H9.6a.6.6 0 1 1 0-1.2h4.2v-6.6a.6.6 0 0 1 .18-.43l3.6-3.6a.6.6 0 0 1 .84 0l3.6 3.6a.6.6 0 0 1 .18.43v6.6Zm-2.05-7.2L18 13.45l-2.15 2.15h4.3ZM15 16.8h6v6h-6v-6Zm2.4-7.2h1.2v1.2h-1.2V9.6Zm1.2 15.6h-1.2v1.2h1.2v-1.2Z" fill="#000"/></svg>